<svg id="eh1NWPfSlLs1" xmlns="http://www.w3.org/2000/svg" xmlns:xlink="http://www.w3.org/1999/xlink" viewBox="0 0 1039.08 566.1" shape-rendering="geometricPrecision" text-rendering="geometricPrecision"><path d="M423.05,654.45c-57.65,0-114.75-23.44-160.8-66-46.54-43-78.75-103-90.71-168.89-13.33-73.48-.88-147.08,35.05-207.25s91-99.69,155.13-111.33c12.697476-2.302213,25.575504-3.463511,38.48-3.47c57.64,0,114.75,23.45,160.79,66c46.54,43,78.76,103,90.71,168.9c13.33,73.47.88,147.07-35.05,207.25s-91,99.69-155.13,111.32c-12.694167,2.301778-25.568836,3.463075-38.47,3.47Z" transform="translate(-163.187796-96.99)" fill="#ffab00"/><path d="M400.2,98c57.51,0,114.5,23.4,160.45,65.89c23.068864,21.436804,42.478153,46.500662,57.46,74.2c33.783112,62.56802,45.630222,134.650557,33.65,204.74-5.85013,34.09334-17.895553,66.826793-35.54,96.58C598.79,568.6,576.75,593,550.73,612c-37.000766,27.240833-81.733099,41.955417-127.68,42-57.52,0-114.51-23.4-160.46-65.88-23.062913-21.439761-42.468468-46.503159-57.45-74.2-33.795418-62.563806-45.646563-134.64947-33.66-204.74c5.837973-34.112454,17.87674-66.866576,35.52-96.64c17.44-29.19,39.47-53.63,65.49-72.62C309.51467,112.71291,354.253823,98.027566,400.2,98v0m0-1c-12.934906.003337-25.843393,1.168013-38.57,3.48-132.86,24.11-218.19,167-190.58,319.15C196,557,304.43,655,423.05,655c12.931798.0012,25.837371-1.163514,38.56-3.48c132.86-24.1,218.19-167,190.58-319.15C627.27,195,518.81,97,400.2,97Z" transform="translate(-165.86-96.99)" fill="#ffab00"/><path d="M421.91,570c-47.24,0-89.27-19.25-121.56-55.66-29.12-32.83-48.13-77.34-53.55-125.25-5.24-46.4,3-91.68,23.27-127.5c22.75-40.25,59.64-67.22,106.67-78c8.401335-1.521493,16.922004-2.287885,25.46-2.29c39.38,0,78.49,16.48,110.14,46.41c32,30.26,54.23,72.38,62.61,118.61C594.2,452.4,536.59,552,446.52,568.33c-8.156832,1.105652-16.378577,1.663568-24.61,1.67Z" transform="translate(-166.36679-96.99)" fill="#fff"/><path d="M402.21,181.82c39.24,0,78.23,16.43,109.79,46.28c31.91,30.18,54.09,72.2,62.46,118.33c9.31,51.28,1.1,102.55-23.12,144.39-11.191052,19.66853-26.279011,36.845801-44.34,50.48-17.839245,13.442542-38.574508,22.527704-60.55,26.53-8.143291,1.108079-16.351672,1.669336-24.57,1.68-47.09,0-89-19.19-121.18-55.49-29.05-32.77-48-77.16-53.43-125-5.23-46.29,3-91.46,23.21-127.19c22.68-40.13,59.45-67,106.3-77.73c8.37789-1.520573,16.875237-2.286974,25.39-2.29v0m0-1c-8.574991-.000139-17.132678.769618-25.57,2.3-207,47.38-153.77,387.39,45.28,387.39c8.261844-.010868,16.51367-.575467,24.7-1.69c90.48-16.41,148.16-116.06,128.84-222.57C558,249.81,483.32,180.81,402.2,180.82Z" transform="translate(-165.86-96.99)" fill="#fff"/><path d="M675.9,647.63c-8.016972-.099793-15.853609-2.392684-22.66-6.63l-161-97.62c-18.1-11-25.91-31.89-17.39-46.61l18.53-32c4.92-8.5,14.25-13.37,25.59-13.37c8.014191.090267,15.850752,2.372761,22.66,6.6l161,97.62c18.1,11,25.9,31.89,17.39,46.61l-18.53,32c-4.92,8.52-14.25,13.4-25.59,13.4Z" transform="translate(-165.86-96.99)" fill="#ffab00"/><path d="M519,450.88v1c7.919272.093471,15.662077,2.351644,22.39,6.53l161,97.62c17.87,10.84,25.6,31.45,17.22,45.93l-18.54,32c-4.82,8.34-14,13.13-25.15,13.13-7.924161-.091091-15.671672-2.353087-22.4-6.54L492.54,543c-17.87-10.84-25.6-31.44-17.22-45.93l18.53-32c4.83-8.35,14-13.13,25.16-13.13v-1m0,0c-11,0-20.86,4.71-26,13.63l-18.53,32c-8.67,15-.8,36.15,17.56,47.29l161,97.62c6.890617,4.268998,14.814777,6.578483,22.92,6.68c11,0,20.86-4.71,26-13.63l18.53-32c8.67-15,.8-36.15-17.56-47.28l-161-97.62c-6.884491-4.29956-14.814032-6.633812-22.93-6.75Z" transform="translate(-165.86-96.99)" fill="#ffab00"/><path d="M945,662.6c-15.409034-.009216-30.772953-1.665288-45.83-4.94C835.54,643.8,781.85,602.36,748.05,541s-43.69-135.38-27.8-208.34c28.52-131,134.52-226.14,252-226.14c15.409034.009216,30.772953,1.665288,45.83,4.94c63.67,13.86,117.35,55.3,151.15,116.67s43.77,135.37,27.85,208.33c-28.53,131-134.53,226.14-252,226.14Z" transform="translate(-168.504839-96.99)" fill="#ffab00"/><path d="M972.29,107c48.503799.029197,95.581721,16.407649,133.63,46.49c25.34,19.89,46.51,45.07,62.92,74.86c16.595382,30.354885,27.494955,63.490807,32.16,97.77c9.429675,69.768615-4.546609,140.694565-39.74,201.67-15.448185,26.733864-35.068856,50.827589-58.12,71.37-45.76,40.59-101.9,62.94-158.09,62.94-48.504328-.026073-95.583245-16.404871-133.63-46.49-25.35-19.89-46.51-45.07-62.92-74.86-16.597435-30.346854-27.497211-63.476616-32.16-97.75-9.425804-69.767295,4.546513-140.690959,39.73-201.67c15.454804-26.717518,35.074927-50.797067,58.12-71.33c45.81-40.63,101.91-63,158.1-63m0-1c-115.73,0-223.46,93-252.53,226.53-32.9,151.1,47.4,296.88,179.34,325.61c15.090079,3.307098,30.491793,4.983384,45.94,5c115.72,0,223.46-93,252.53-226.53c32.89-151.1-47.4-296.88-179.34-325.61-15.090166-3.306564-30.491823-4.982844-45.94-5Z" transform="translate(-165.86-96.99)" fill="#ffab00"/><path d="M947.62,578.22c-10.24586-.024398-20.471651-.907488-30.57-2.64-89.41-19.47-143.52-121-120.59-226.34c20.06-92.12,93-159,173.43-159c10.207705.003289,20.385716,1.099537,30.36,3.27c45.88,12.2,81.48,39.81,102.91,79.84c19.07,35.62,26.3,80.3,20.35,125.8-6.2,47.47-25.82,91.53-55.24,124.08-32.52,36-74.24,55-120.65,55Z" transform="translate(-168.229418-96.99)" fill="#fff"/><path d="M969.89,190.76c10.156653.000992,20.284131,1.087157,30.21,3.24c45.77,12.16,81.25,39.69,102.62,79.59c19,35.53,26.23,80.1,20.3,125.5-6.19,47.37-25.76,91.34-55.12,123.81-32.43,35.86-74,54.81-120.28,54.81-10.20256-.019364-20.385312-.899149-30.44-2.63-21.841943-4.763595-42.266321-14.57168-59.64-28.64-17.559246-14.264274-32.02702-31.957695-42.52-52-22.74-42.65-29.16-94.19-18.07-145.11c4.850686-22.525291,13.126869-44.173549,24.54-64.19c10.638125-18.712866,24.157087-35.633504,40.06-50.14c31.49-28.53,70-44.25,108.34-44.25m0-1c-79.22,0-153.49,65.57-173.92,159.38-23,105.77,31.15,207.37,121,226.93c10.123529,1.747069,20.37684,2.633571,30.65,2.65c194.2,0,255.93-331.67,52.74-385.68-10.010295-2.178905-20.225312-3.27852-30.47-3.28Z" transform="translate(-165.86-96.99)" fill="#fff"/><path d="M686.46,646.9c-11.8,0-21.7-5.36-26.49-14.33l-17.42-32.66c-8-15,.42-35.56,18.78-45.83L824.6,462.77c6.495837-3.707229,13.831125-5.693368,21.31-5.77c11.79,0,21.69,5.36,26.48,14.34L889.81,504c8,15-.42,35.56-18.78,45.83L707.76,641.14c-6.493654,3.702505-13.825344,5.685159-21.3,5.76Z" transform="translate(-165.86-96.99)" fill="#ffab00"/><path d="M845.91,457.51c11.6,0,21.34,5.26,26,14.07l17.42,32.66c7.88,14.76-.46,35-18.59,45.16L707.52,640.7c-6.423055,3.663955-13.675764,5.626007-21.07,5.7-11.6,0-21.34-5.26-26-14.07L643,599.68c-7.88-14.76.46-35,18.59-45.16l163.26-91.31c6.423055-3.663955,13.675764-5.626007,21.07-5.7m0-1c-7.562813.074896-14.980952,2.081752-21.55,5.83L661.09,553.65c-18.63,10.41-27.13,31.23-19,46.5l17.42,32.65c5.06,9.49,15.37,14.6,26.92,14.6c7.568781-.067999,14.994278-2.071541,21.57-5.82l163.27-91.31c18.63-10.42,27.13-31.24,19-46.5l-17.42-32.66c-5.06-9.49-15.37-14.6-26.92-14.6Z" transform="translate(-165.86-96.99)" fill="#ffab00"/><g transform="translate(0 0.000001)"><ellipse rx="74.700874" ry="62.586122" transform="matrix(.981668 0 0 0.970193 795.386636 264.043566)" fill="#ffab00" stroke-width="0"/><rect width="210.128342" height="33.834225" rx="0" ry="0" transform="matrix(.674274-.168115 0.474732 1.904046 703.256699 199.621637)" fill="#fff" stroke-width="0"/></g><g transform="matrix(-1 0 0 1 1031.563309 1.85061)"><ellipse rx="74.700874" ry="62.586122" transform="matrix(.981668 0 0 0.970193 795.386636 264.043566)" fill="#ffab00" stroke-width="0"/><rect width="210.128342" height="33.834225" rx="0" ry="0" transform="matrix(.674274-.168115 0.474732 1.904046 703.256699 199.621637)" fill="#fff" stroke-width="0"/></g><ellipse rx="10.542766" ry="33.136269" transform="translate(225.633907 283.05)" fill="#fff" stroke-width="0"/><ellipse rx="10.542766" ry="33.136269" transform="translate(803.346097 283.05)" fill="#fff" stroke-width="0"/></svg>
