<svg id="Layer_1" data-name="Layer 1" xmlns="http://www.w3.org/2000/svg" viewBox="0 0 1039.08 566.1"><defs><style>.cls-1{fill:#ffab00;}.cls-2{fill:#fff;}</style></defs><path class="cls-1" d="M423.05,654.45c-57.65,0-114.75-23.44-160.8-66-46.54-43-78.75-103-90.71-168.89-13.33-73.48-.88-147.08,35.05-207.25s91-99.69,155.13-111.33a216.3,216.3,0,0,1,38.48-3.47c57.64,0,114.75,23.45,160.79,66,46.54,43,78.76,103,90.71,168.9,13.33,73.47.88,147.07-35.05,207.25s-91,99.69-155.13,111.32A216.27,216.27,0,0,1,423.05,654.45Z" transform="translate(-165.86 -96.99)"/><path class="cls-1" d="M400.2,98c57.51,0,114.5,23.4,160.45,65.89a288.94,288.94,0,0,1,57.46,74.2,318.12,318.12,0,0,1,33.65,204.74,283.26,283.26,0,0,1-35.54,96.58C598.79,568.6,576.75,593,550.73,612A215.71,215.71,0,0,1,423.05,654c-57.52,0-114.51-23.4-160.46-65.88a289.12,289.12,0,0,1-57.45-74.2,318,318,0,0,1-33.66-204.74A283.31,283.31,0,0,1,207,212.54c17.44-29.19,39.47-53.63,65.49-72.62A215.89,215.89,0,0,1,400.2,98h0m0-1a216.1,216.1,0,0,0-38.57,3.48c-132.86,24.11-218.19,167-190.58,319.15C196,557,304.43,655,423.05,655a215.15,215.15,0,0,0,38.56-3.48c132.86-24.1,218.19-167,190.58-319.15C627.27,195,518.81,97,400.2,97Z" transform="translate(-165.86 -96.99)"/><path class="cls-2" d="M421.91,570c-47.24,0-89.27-19.25-121.56-55.66C271.23,481.51,252.22,437,246.8,389.09c-5.24-46.4,3-91.68,23.27-127.5,22.75-40.25,59.64-67.22,106.67-78a143.07,143.07,0,0,1,25.46-2.29c39.38,0,78.49,16.48,110.14,46.41,32,30.26,54.23,72.38,62.61,118.61C594.2,452.4,536.59,552,446.52,568.33A184.29,184.29,0,0,1,421.91,570Z" transform="translate(-165.86 -96.99)"/><path class="cls-2" d="M402.21,181.82c39.24,0,78.23,16.43,109.79,46.28,31.91,30.18,54.09,72.2,62.46,118.33,9.31,51.28,1.1,102.55-23.12,144.39A166.28,166.28,0,0,1,507,541.3a143.27,143.27,0,0,1-60.55,26.53,184,184,0,0,1-24.57,1.68c-47.09,0-89-19.19-121.18-55.49-29.05-32.77-48-77.16-53.43-125-5.23-46.29,3-91.46,23.21-127.19,22.68-40.13,59.45-67,106.3-77.73a142.46,142.46,0,0,1,25.39-2.29h0m0-1a143.26,143.26,0,0,0-25.57,2.3c-207,47.38-153.77,387.39,45.28,387.39a184.9,184.9,0,0,0,24.7-1.69c90.48-16.41,148.16-116.06,128.84-222.57C558,249.81,483.32,180.81,402.2,180.82Z" transform="translate(-165.86 -96.99)"/><path class="cls-1" d="M675.9,647.63A43.91,43.91,0,0,1,653.24,641l-161-97.62c-18.1-11-25.91-31.89-17.39-46.61l18.53-32c4.92-8.5,14.25-13.37,25.59-13.37a43.9,43.9,0,0,1,22.66,6.6l161,97.62c18.1,11,25.9,31.89,17.39,46.61l-18.53,32C696.57,642.75,687.24,647.63,675.9,647.63Z" transform="translate(-165.86 -96.99)"/><path class="cls-1" d="M519,450.88v1a43.41,43.41,0,0,1,22.39,6.53l161,97.62c17.87,10.84,25.6,31.45,17.22,45.93l-18.54,32c-4.82,8.34-14,13.13-25.15,13.13a43.34,43.34,0,0,1-22.4-6.54L492.54,543c-17.87-10.84-25.6-31.44-17.22-45.93l18.53-32c4.83-8.35,14-13.13,25.16-13.13v-1m0,0c-11,0-20.86,4.71-26,13.63l-18.53,32c-8.67,15-.8,36.15,17.56,47.29l161,97.62a44.58,44.58,0,0,0,22.92,6.68c11,0,20.86-4.71,26-13.63l18.53-32c8.67-15,.8-36.15-17.56-47.28l-161-97.62A44.49,44.49,0,0,0,519,450.88Z" transform="translate(-165.86 -96.99)"/><path class="cls-1" d="M945,662.6a216.26,216.26,0,0,1-45.83-4.94C835.54,643.8,781.85,602.36,748.05,541s-43.69-135.38-27.8-208.34c28.52-131,134.52-226.14,252-226.14a216.26,216.26,0,0,1,45.83,4.94c63.67,13.86,117.35,55.3,151.15,116.67S1213,363.5,1197.08,436.46c-28.53,131-134.53,226.14-252,226.14Z" transform="translate(-165.86 -96.99)"/><path class="cls-1" d="M972.29,107a215.67,215.67,0,0,1,133.63,46.49c25.34,19.89,46.51,45.07,62.92,74.86A283.51,283.51,0,0,1,1201,326.12a318.18,318.18,0,0,1-39.74,201.67,289.84,289.84,0,0,1-58.12,71.37c-45.76,40.59-101.9,62.94-158.09,62.94a215.63,215.63,0,0,1-133.63-46.49c-25.35-19.89-46.51-45.07-62.92-74.86A283.3,283.3,0,0,1,716.34,443a318.27,318.27,0,0,1,39.73-201.67A290.06,290.06,0,0,1,814.19,170C860,129.37,916.1,107,972.29,107m0-1c-115.73,0-223.46,93-252.53,226.53-32.9,151.1,47.4,296.88,179.34,325.61a215.68,215.68,0,0,0,45.94,5c115.72,0,223.46-93,252.53-226.53,32.89-151.1-47.4-296.88-179.34-325.61A215.75,215.75,0,0,0,972.29,106Z" transform="translate(-165.86 -96.99)"/><path class="cls-2" d="M947.62,578.22a183.37,183.37,0,0,1-30.57-2.64c-89.41-19.47-143.52-121-120.59-226.34,20.06-92.12,93-159,173.43-159a143,143,0,0,1,30.36,3.27c45.88,12.2,81.48,39.81,102.91,79.84,19.07,35.62,26.3,80.3,20.35,125.8-6.2,47.47-25.82,91.53-55.24,124.08-32.52,36-74.24,55-120.65,55Z" transform="translate(-165.86 -96.99)"/><path class="cls-2" d="M969.89,190.76A142.59,142.59,0,0,1,1000.1,194c45.77,12.16,81.25,39.69,102.62,79.59,19,35.53,26.23,80.1,20.3,125.5-6.19,47.37-25.76,91.34-55.12,123.81-32.43,35.86-74,54.81-120.28,54.81a181.46,181.46,0,0,1-30.44-2.63,143.29,143.29,0,0,1-59.64-28.64,166.48,166.48,0,0,1-42.52-52c-22.74-42.65-29.16-94.19-18.07-145.11a225.38,225.38,0,0,1,24.54-64.19A205,205,0,0,1,861.55,235c31.49-28.53,70-44.25,108.34-44.25m0-1c-79.22,0-153.49,65.57-173.92,159.38-23,105.77,31.15,207.37,121,226.93a181.94,181.94,0,0,0,30.65,2.65c194.2,0,255.93-331.67,52.74-385.68a143.36,143.36,0,0,0-30.47-3.28Z" transform="translate(-165.86 -96.99)"/><path class="cls-1" d="M686.46,646.9c-11.8,0-21.7-5.36-26.49-14.33l-17.42-32.66c-8-15,.42-35.56,18.78-45.83L824.6,462.77A43.9,43.9,0,0,1,845.91,457c11.79,0,21.69,5.36,26.48,14.34L889.81,504c8,15-.42,35.56-18.78,45.83L707.76,641.14a43.89,43.89,0,0,1-21.3,5.76Z" transform="translate(-165.86 -96.99)"/><path class="cls-1" d="M845.91,457.51c11.6,0,21.34,5.26,26,14.07l17.42,32.66c7.88,14.76-.46,35-18.59,45.16L707.52,640.7a43.4,43.4,0,0,1-21.07,5.7c-11.6,0-21.34-5.26-26-14.07L643,599.68c-7.88-14.76.46-35,18.59-45.16l163.26-91.31a43.4,43.4,0,0,1,21.07-5.7m0-1a44.37,44.37,0,0,0-21.55,5.83L661.09,553.65c-18.63,10.41-27.13,31.23-19,46.5l17.42,32.65c5.06,9.49,15.37,14.6,26.92,14.6A44.36,44.36,0,0,0,708,641.58l163.27-91.31c18.63-10.42,27.13-31.24,19-46.5l-17.42-32.66c-5.06-9.49-15.37-14.6-26.92-14.6Z" transform="translate(-165.86 -96.99)"/></svg>