<svg id="Layer_1" data-name="Layer 1" xmlns="http://www.w3.org/2000/svg" viewBox="0 0 399.37 224.63"><defs><style>.cls-1{fill:#fff;}.cls-2{fill:#ffab00;}</style></defs><ellipse class="cls-1" cx="105.25" cy="109.58" rx="93.82" ry="102"/><path class="cls-2" d="M208.44,127.5a122.2,122.2,0,0,1-6.29,41.13,115.36,115.36,0,0,1-20.49,36.88,108.08,108.08,0,0,1-15.31,15.08,103.78,103.78,0,0,1-18.29,11.74,99.48,99.48,0,0,1-20.61,7.53,95.53,95.53,0,0,1-21.89,2.69l-5.52-.1-5.52-.4L89,241.3c-1.81-.35-3.62-.69-5.43-1.06a100.07,100.07,0,0,1-20.88-7.18A105.13,105.13,0,0,1,44,221.57a109.27,109.27,0,0,1-15.81-15,115.51,115.51,0,0,1-21.35-37.2A120.11,120.11,0,0,1,8.66,86.25a113.36,113.36,0,0,1,22.23-35.5,104.82,104.82,0,0,1,33.9-24.41,95.51,95.51,0,0,1,20-6.45,97.77,97.77,0,0,1,20.81-2,94.62,94.62,0,0,1,40.24,9.54,107.12,107.12,0,0,1,32.84,24.69A114.84,114.84,0,0,1,200.35,87,118.07,118.07,0,0,1,208.44,127.5Zm-18.1,0a102.52,102.52,0,0,0-5.2-34.9A97.45,97.45,0,0,0,178,76.3a89.44,89.44,0,0,0-10.15-14.63,82.37,82.37,0,0,0-28.09-21.41,79.28,79.28,0,0,0-34.22-7.18,77.94,77.94,0,0,0-33.68,8.31,84.47,84.47,0,0,0-27,21.68,93.64,93.64,0,0,0-16.75,30.3A100.45,100.45,0,0,0,29.9,161a91.6,91.6,0,0,0,17.63,28.6A83,83,0,0,0,74,209.21a76.45,76.45,0,0,0,15.42,5.32l4,.79,4,.57,4.07.39,4.08.17a77.41,77.41,0,0,0,32-6.51,84,84,0,0,0,27.32-19.27,91.75,91.75,0,0,0,18.5-28.92A98.68,98.68,0,0,0,190.34,127.5Z" transform="translate(-0.32 -17.92)"/><path class="cls-2" d="M139.41,179.86a187,187,0,0,1,18.93,8c6.14,2.92,12.14,6.07,18,9.35s11.72,6.73,17.44,10.3c2.82,1.86,5.85,3.38,8.26,5.88a21.15,21.15,0,0,1,4.56,6.95,17.53,17.53,0,0,1,.94,3.22L200,235.46a16.62,16.62,0,0,1-3.31.48,19.4,19.4,0,0,1-3-.06,20.4,20.4,0,0,1-5.26-1.17c-3.27-1.14-5.92-3.26-8.78-5.05q-8.46-5.55-16.65-11.53c-5.46-4-10.82-8.13-16-12.48a187.92,187.92,0,0,1-15.15-13.87Z" transform="translate(-0.32 -17.92)"/><ellipse class="cls-1" cx="294.12" cy="109.58" rx="93.82" ry="102"/><path class="cls-2" d="M209.66,127.5a98.68,98.68,0,0,0,7,34.25,91.75,91.75,0,0,0,18.5,28.92,84,84,0,0,0,27.32,19.27,77.41,77.41,0,0,0,32,6.51l4.08-.17,4.07-.39,4-.57,4-.79a76.45,76.45,0,0,0,15.42-5.32,83,83,0,0,0,26.42-19.64A91.6,91.6,0,0,0,370.1,161a100.45,100.45,0,0,0,1.79-67.6,93.64,93.64,0,0,0-16.75-30.3,84.47,84.47,0,0,0-27-21.68,77.94,77.94,0,0,0-33.68-8.31,79.28,79.28,0,0,0-34.22,7.18,82.37,82.37,0,0,0-28.09,21.41A89.44,89.44,0,0,0,222,76.3a97.45,97.45,0,0,0-7.12,16.3A102.52,102.52,0,0,0,209.66,127.5Zm-18.1,0A118.07,118.07,0,0,1,199.65,87a114.84,114.84,0,0,1,21.71-34.87A107.12,107.12,0,0,1,254.2,27.47a94.62,94.62,0,0,1,40.24-9.54,97.77,97.77,0,0,1,20.81,2,95.51,95.51,0,0,1,20,6.45,104.82,104.82,0,0,1,33.9,24.41,113.36,113.36,0,0,1,22.23,35.5,120.11,120.11,0,0,1,1.79,83.16,115.51,115.51,0,0,1-21.35,37.2,109.27,109.27,0,0,1-15.81,15,105.13,105.13,0,0,1-18.69,11.49,100.07,100.07,0,0,1-20.88,7.18c-1.81.37-3.62.71-5.43,1.06l-5.49.75-5.52.4-5.52.1a95.53,95.53,0,0,1-21.89-2.69,99.48,99.48,0,0,1-20.61-7.53,103.78,103.78,0,0,1-18.29-11.74,108.08,108.08,0,0,1-15.31-15.08,115.36,115.36,0,0,1-20.49-36.88A122.2,122.2,0,0,1,191.56,127.5Z" transform="translate(-0.32 -17.92)"/><path class="cls-2" d="M268.22,191.78a187.92,187.92,0,0,1-15.15,13.87c-5.23,4.35-10.59,8.48-16,12.48s-11,7.83-16.65,11.53c-2.86,1.79-5.51,3.91-8.78,5.05a20.4,20.4,0,0,1-5.26,1.17,19.4,19.4,0,0,1-3,.06,16.62,16.62,0,0,1-3.31-.48l-7.64-11.92a17.53,17.53,0,0,1,.94-3.22,21.15,21.15,0,0,1,4.56-6.95c2.41-2.5,5.44-4,8.26-5.88,5.72-3.57,11.53-7,17.44-10.3s11.91-6.43,18-9.35a187,187,0,0,1,18.93-8Z" transform="translate(-0.32 -17.92)"/></svg>